<svg width="162" height="31" fill="none" xmlns="http://www.w3.org/2000/svg"><path d="M8.775.04h13.68L31.41 31H20.835l-1.17-5.94h-8.01L10.35 31H.225L8.775.04Zm9.81 19.485L15.66 5.98 12.6 19.525h5.985ZM34.39.04h9.72v24.12h10.755V31H34.39V.04Zm24.214 0h11.16c4.62 0 8.19.9 10.71 2.7 2.55 1.8 3.825 4.32 3.825 7.56 0 2.04-.63 3.825-1.89 5.355-1.23 1.53-2.925 2.715-5.085 3.555-2.13.81-4.5 1.215-7.11 1.215h-1.89V31h-9.72V.04Zm11.655 14.13c1.59 0 2.82-.33 3.69-.99.87-.66 1.305-1.62 1.305-2.88 0-1.26-.435-2.205-1.305-2.835-.84-.63-2.07-.945-3.69-.945h-1.935v7.56c.6.06 1.245.09 1.935.09ZM87.827.04h10.395V31H87.827V.04Zm16.26 0h9.045l12.33 16.695V.04h8.055V31h-9l-12.42-16.11V31h-8.01V.04Zm35.288 0h21.735v6.84h-10.8v5.625h9.855v5.67h-9.855v5.985h10.8V31h-21.735V.04Z" fill="#fff"/></svg>